<?xml version="1.0" encoding="UTF-8" standalone="no"?>
<svg
   xmlns:dc="http://purl.org/dc/elements/1.1/"
   xmlns:cc="http://creativecommons.org/ns#"
   xmlns:rdf="http://www.w3.org/1999/02/22-rdf-syntax-ns#"
   xmlns:svg="http://www.w3.org/2000/svg"
   xmlns="http://www.w3.org/2000/svg"
   xmlns:sodipodi="http://sodipodi.sourceforge.net/DTD/sodipodi-0.dtd"
   xmlns:inkscape="http://www.inkscape.org/namespaces/inkscape"
   inkscape:export-ydpi="122.88"
   inkscape:export-xdpi="122.88"
   inkscape:export-filename="E:\Projects\FrozenStormInteractive\Tools\Spacescape\packaging\windows\uninstaller-512.png"
   viewBox="0 0 105.833 105.833"
   height="400"
   width="400"
   version="1.1"
   id="svg897"
   sodipodi:docname="uninstaller.svg"
   inkscape:version="1.0 (4035a4fb49, 2020-05-01)">
  <metadata
     id="metadata903">
    <rdf:RDF>
      <cc:Work
         rdf:about="">
        <dc:format>image/svg+xml</dc:format>
        <dc:type
           rdf:resource="http://purl.org/dc/dcmitype/StillImage" />
        <dc:title />
      </cc:Work>
    </rdf:RDF>
  </metadata>
  <defs
     id="defs901" />
  <sodipodi:namedview
     inkscape:document-rotation="0"
     pagecolor="#000000"
     bordercolor="#666666"
     borderopacity="1"
     objecttolerance="10"
     gridtolerance="10"
     guidetolerance="10"
     inkscape:pageopacity="0"
     inkscape:pageshadow="2"
     inkscape:window-width="1920"
     inkscape:window-height="1017"
     id="namedview899"
     showgrid="false"
     inkscape:pagecheckerboard="true"
     inkscape:zoom="0.75130096"
     inkscape:cx="-185.48592"
     inkscape:cy="165.11867"
     inkscape:window-x="-8"
     inkscape:window-y="-8"
     inkscape:window-maximized="1"
     inkscape:current-layer="g1474" />
  <g
     transform="translate(0,-191.167)"
     id="g895">
    <rect
       style="stroke-width:0.975"
       rx="7.7395501"
       y="192.48991"
       height="103.18717"
       width="103.18717"
       fill="#3c3c3c"
       id="rect887"
       x="1.322914" />
    <path
       d="m 43.687,229.749 c 0,0 3.278,9.478 7.013,12.422 4.582,3.612 16.83,4.809 16.83,4.809 0,0 -12.822,3.59 -16.83,8.415 -5.418,6.52 -7.013,24.444 -7.013,24.444 0,0 -1.596,-17.924 -7.013,-24.444 -4.008,-4.825 -16.83,-8.415 -16.83,-8.415 0,0 12.248,-1.197 16.83,-4.809 3.734,-2.944 7.013,-12.422 7.013,-12.422 z"
       fill="#ffffff"
       id="path889" />
    <path
       d="m 58.239,208.328 c 0,0 2.064,5.967 4.415,7.82 2.884,2.274 10.595,3.027 10.595,3.027 0,0 -8.072,2.26 -10.595,5.298 -3.41,4.105 -4.415,15.388 -4.415,15.388 0,0 -1.005,-11.283 -4.415,-15.388 -2.523,-3.037 -10.595,-5.298 -10.595,-5.298 0,0 7.71,-0.753 10.595,-3.027 2.35,-1.853 4.415,-7.82 4.415,-7.82 z"
       fill="#afafaf"
       id="path891" />
    <path
       d="m 73.981,227.793 c 0,0 1.652,4.774 3.532,6.257 2.308,1.819 8.477,2.422 8.477,2.422 0,0 -6.458,1.808 -8.477,4.238 -2.728,3.283 -3.532,12.31 -3.532,12.31 0,0 -0.803,-9.027 -3.531,-12.31 -2.02,-2.43 -8.477,-4.238 -8.477,-4.238 0,0 6.169,-0.603 8.477,-2.422 1.88,-1.483 3.531,-6.257 3.531,-6.257 z"
       fill="#7f7f7f"
       id="path893" />
  </g>
  <g
     style="display:inline"
     id="g1474"
     transform="translate(0,-191.167)">
    <path
       transform="matrix(0.2645825,0,0,0.2645825,0,191.167)"
       d="M 30.001953,0 C 13.380853,0 0,13.380861 0,30.001953 V 369.99805 C 0,386.61914 13.380853,400 30.001953,400 H 369.99805 C 386.61914,400 400,386.61914 400,369.99805 V 30.001953 C 400,13.380861 386.61914,0 369.99805,0 Z m 17,20 H 352.99805 C 367.95704,20 380,32.042952 380,47.001953 V 160 L 160,380 H 47.001953 C 32.042964,380 20,367.95705 20,352.99805 V 47.001953 C 20,32.042952 32.042964,20 47.001953,20 Z"
       style="fill:#e54b44;fill-opacity:1;stroke-width:3.77954"
       id="rect1466" />
    <rect
       transform="rotate(-45)"
       ry="0"
       y="253.40091"
       x="-152.37335"
       height="9.2603874"
       width="34.395725"
       id="rect2068"
       style="fill:#ffffff;fill-opacity:1;stroke:none;stroke-width:0.264583;stroke-miterlimit:4;stroke-dasharray:none" />
    <rect
       transform="rotate(45)"
       style="fill:#ffffff;fill-opacity:1;stroke:none;stroke-width:0.264583;stroke-miterlimit:4;stroke-dasharray:none"
       id="rect2072"
       width="34.395725"
       height="9.2603874"
       x="240.83324"
       y="130.54529"
       ry="0" />
  </g>
</svg>
