<svg xmlns="http://www.w3.org/2000/svg" viewBox="0 0 105.833 105.833" height="400" width="400"><g transform="translate(0 -191.167)"><rect rx="7.938" y="191.167" height="105.833" width="105.833" fill="#3c3c3c"/><path d="M43.687 229.749s3.278 9.478 7.013 12.422c4.582 3.612 16.83 4.809 16.83 4.809s-12.822 3.59-16.83 8.415c-5.418 6.52-7.013 24.444-7.013 24.444s-1.596-17.924-7.013-24.444c-4.008-4.825-16.83-8.415-16.83-8.415s12.248-1.197 16.83-4.809c3.734-2.944 7.013-12.422 7.013-12.422z" fill="#fff"/><path d="M58.239 208.328s2.064 5.967 4.415 7.82c2.884 2.274 10.595 3.027 10.595 3.027s-8.072 2.26-10.595 5.298c-3.41 4.105-4.415 15.388-4.415 15.388s-1.005-11.283-4.415-15.388c-2.523-3.037-10.595-5.298-10.595-5.298s7.71-.753 10.595-3.027c2.35-1.853 4.415-7.82 4.415-7.82z" fill="#afafaf"/><path d="M73.981 227.793s1.652 4.774 3.532 6.257c2.308 1.819 8.477 2.422 8.477 2.422s-6.458 1.808-8.477 4.238c-2.728 3.283-3.532 12.31-3.532 12.31s-.803-9.027-3.531-12.31c-2.02-2.43-8.477-4.238-8.477-4.238s6.169-.603 8.477-2.422c1.88-1.483 3.531-6.257 3.531-6.257z" fill="#7f7f7f"/></g></svg>